{
  "accessors": [
    {
      "bufferView": 2,
      "componentType": 5126,
      "count": 6,
      "max": [
        745.8325805664063,
        457.4530029296875,
        153.9732666015625
      ],
      "min": [
        -746.870361328125,
        -413.0917053222656,
        -5.684341886080802e-14
      ],
      "type": "VEC3"
    },
    {
      "bufferView": 0,
      "componentType": 5125,
      "count": 6,
      "type": "SCALAR"
    },
    {
      "bufferView": 2,
      "byteOffset": 72,
      "componentType": 5126,
      "count": 5938,
      "max": [
        745.8325805664063,
        501.9450988769531,
        250.6875
      ],
      "min": [
        -746.870361328125,
        -416.9667053222656,
        -5.684341886080802e-14
      ],
      "type": "VEC3"
    },
    {
      "bufferView": 2,
      "byteOffset": 71328,
      "componentType": 5126,
      "count": 5938,
      "type": "VEC3"
    },
    {
      "bufferView": 1,
      "componentType": 5126,
      "count": 5938,
      "type": "VEC2"
    },
    {
      "bufferView": 0,
      "byteOffset": 24,
      "componentType": 5125,
      "count": 10056,
      "type": "SCALAR"
    },
    {
      "bufferView": 2,
      "byteOffset": 142584,
      "componentType": 5126,
      "count": 462,
      "max": [
        756.6785278320313,
        501.3200988769531,
        112.0
      ],
      "min": [
        -757.7164916992188,
        -411.9667053222656,
        -5.684341886080802e-14
      ],
      "type": "VEC3"
    },
    {
      "bufferView": 2,
      "byteOffset": 148128,
      "componentType": 5126,
      "count": 462,
      "type": "VEC3"
    },
    {
      "bufferView": 3,
      "componentType": 5126,
      "count": 462,
      "type": "VEC4"
    },
    {
      "bufferView": 1,
      "byteOffset": 47504,
      "componentType": 5126,
      "count": 462,
      "type": "VEC2"
    },
    {
      "bufferView": 0,
      "byteOffset": 40248,
      "componentType": 5125,
      "count": 642,
      "type": "SCALAR"
    },
    {
      "bufferView": 2,
      "byteOffset": 153672,
      "componentType": 5126,
      "count": 2108,
      "max": [
        756.6785278320313,
        422.1949768066406,
        112.0
      ],
      "min": [
        -757.7164916992188,
        -525.9041748046875,
        -5.684341886080802e-14
      ],
      "type": "VEC3"
    },
    {
      "bufferView": 2,
      "byteOffset": 178968,
      "componentType": 5126,
      "count": 2108,
      "type": "VEC3"
    },
    {
      "bufferView": 3,
      "byteOffset": 7392,
      "componentType": 5126,
      "count": 2108,
      "type": "VEC4"
    },
    {
      "bufferView": 1,
      "byteOffset": 51200,
      "componentType": 5126,
      "count": 2108,
      "type": "VEC2"
    },
    {
      "bufferView": 0,
      "byteOffset": 42816,
      "componentType": 5125,
      "count": 3732,
      "type": "SCALAR"
    },
    {
      "bufferView": 2,
      "byteOffset": 204264,
      "componentType": 5126,
      "count": 660,
      "max": [
        756.6785278320313,
        501.4450988769531,
        298.902099609375
      ],
      "min": [
        -757.7164916992188,
        -525.9041748046875,
        -5.684341886080802e-14
      ],
      "type": "VEC3"
    },
    {
      "bufferView": 2,
      "byteOffset": 212184,
      "componentType": 5126,
      "count": 660,
      "type": "VEC3"
    },
    {
      "bufferView": 0,
      "byteOffset": 57744,
      "componentType": 5125,
      "count": 1656,
      "type": "SCALAR"
    },
    {
      "bufferView": 2,
      "byteOffset": 220104,
      "componentType": 5126,
      "count": 259,
      "max": [
        756.6785278320313,
        501.3199768066406,
        298.902099609375
      ],
      "min": [
        -757.7164916992188,
        -525.9041748046875,
        -5.684341886080802e-14
      ],
      "type": "VEC3"
    },
    {
      "bufferView": 2,
      "byteOffset": 223212,
      "componentType": 5126,
      "count": 259,
      "type": "VEC3"
    },
    {
      "bufferView": 0,
      "byteOffset": 64368,
      "componentType": 5125,
      "count": 690,
      "type": "SCALAR"
    },
    {
      "bufferView": 2,
      "byteOffset": 226320,
      "componentType": 5126,
      "count": 2518,
      "max": [
        705.0044555664063,
        421.1225891113281,
        112.0
      ],
      "min": [
        -706.0426025390625,
        -226.5406036376953,
        -5.684341886080802e-14
      ],
      "type": "VEC3"
    },
    {
      "bufferView": 2,
      "byteOffset": 256536,
      "componentType": 5126,
      "count": 2518,
      "type": "VEC3"
    },
    {
      "bufferView": 3,
      "byteOffset": 41120,
      "componentType": 5126,
      "count": 2518,
      "type": "VEC4"
    },
    {
      "bufferView": 1,
      "byteOffset": 68064,
      "componentType": 5126,
      "count": 2518,
      "type": "VEC2"
    },
    {
      "bufferView": 0,
      "byteOffset": 67128,
      "componentType": 5125,
      "count": 6708,
      "type": "SCALAR"
    },
    {
      "bufferView": 2,
      "byteOffset": 286752,
      "componentType": 5126,
      "count": 98,
      "max": [
        754.6785278320313,
        499.3345031738281,
        298.6618347167969
      ],
      "min": [
        -755.7164916992188,
        -409.9811706542969,
        188.62249755859375
      ],
      "type": "VEC3"
    },
    {
      "bufferView": 2,
      "byteOffset": 287928,
      "componentType": 5126,
      "count": 98,
      "type": "VEC3"
    },
    {
      "bufferView": 3,
      "byteOffset": 81408,
      "componentType": 5126,
      "count": 98,
      "type": "VEC4"
    },
    {
      "bufferView": 1,
      "byteOffset": 88208,
      "componentType": 5126,
      "count": 98,
      "type": "VEC2"
    },
    {
      "bufferView": 0,
      "byteOffset": 93960,
      "componentType": 5125,
      "count": 162,
      "type": "SCALAR"
    },
    {
      "bufferView": 2,
      "byteOffset": 289104,
      "componentType": 5126,
      "count": 100,
      "max": [
        756.6785278320313,
        501.3199768066406,
        298.902099609375
      ],
      "min": [
        -757.7164916992188,
        -411.9667053222656,
        188.38230895996094
      ],
      "type": "VEC3"
    },
    {
      "bufferView": 2,
      "byteOffset": 290304,
      "componentType": 5126,
      "count": 100,
      "type": "VEC3"
    },
    {
      "bufferView": 0,
      "byteOffset": 94608,
      "componentType": 5125,
      "count": 408,
      "type": "SCALAR"
    },
    {
      "bufferView": 2,
      "byteOffset": 291504,
      "componentType": 5126,
      "count": 16208,
      "max": [
        315.8724060058594,
        -395.1005554199219,
        187.92080688476563
      ],
      "min": [
        -316.4590148925781,
        -408.80499267578125,
        20.065879821777344
      ],
      "type": "VEC3"
    },
    {
      "bufferView": 2,
      "byteOffset": 486000,
      "componentType": 5126,
      "count": 16208,
      "type": "VEC3"
    },
    {
      "bufferView": 3,
      "byteOffset": 82976,
      "componentType": 5126,
      "count": 16208,
      "type": "VEC4"
    },
    {
      "bufferView": 1,
      "byteOffset": 88992,
      "componentType": 5126,
      "count": 16208,
      "type": "VEC2"
    },
    {
      "bufferView": 0,
      "byteOffset": 96240,
      "componentType": 5125,
      "count": 21168,
      "type": "SCALAR"
    },
    {
      "bufferView": 2,
      "byteOffset": 680496,
      "componentType": 5126,
      "count": 65533,
      "max": [
        657.43408203125,
        419.1898498535156,
        132.3236083984375
      ],
      "min": [
        -682.405517578125,
        -411.9667053222656,
        -5.684341886080802e-14
      ],
      "type": "VEC3"
    },
    {
      "bufferView": 2,
      "byteOffset": 1466892,
      "componentType": 5126,
      "count": 65533,
      "type": "VEC3"
    },
    {
      "bufferView": 3,
      "byteOffset": 342304,
      "componentType": 5126,
      "count": 65533,
      "type": "VEC4"
    },
    {
      "bufferView": 1,
      "byteOffset": 218656,
      "componentType": 5126,
      "count": 65533,
      "type": "VEC2"
    },
    {
      "bufferView": 0,
      "byteOffset": 180912,
      "componentType": 5125,
      "count": 123933,
      "type": "SCALAR"
    },
    {
      "bufferView": 2,
      "byteOffset": 2253288,
      "componentType": 5126,
      "count": 65532,
      "max": [
        702.4869995117188,
        419.1898498535156,
        132.3236083984375
      ],
      "min": [
        -659.833251953125,
        -246.18275451660156,
        0.0
      ],
      "type": "VEC3"
    },
    {
      "bufferView": 2,
      "byteOffset": 3039672,
      "componentType": 5126,
      "count": 65532,
      "type": "VEC3"
    },
    {
      "bufferView": 3,
      "byteOffset": 1390832,
      "componentType": 5126,
      "count": 65532,
      "type": "VEC4"
    },
    {
      "bufferView": 1,
      "byteOffset": 742920,
      "componentType": 5126,
      "count": 65532,
      "type": "VEC2"
    },
    {
      "bufferView": 0,
      "byteOffset": 676644,
      "componentType": 5125,
      "count": 124026,
      "type": "SCALAR"
    },
    {
      "bufferView": 2,
      "byteOffset": 3826056,
      "componentType": 5126,
      "count": 54717,
      "max": [
        249.03152465820313,
        418.3459167480469,
        132.3236083984375
      ],
      "min": [
        -703.524658203125,
        -246.18275451660156,
        0.0
      ],
      "type": "VEC3"
    },
    {
      "bufferView": 2,
      "byteOffset": 4482660,
      "componentType": 5126,
      "count": 54717,
      "type": "VEC3"
    },
    {
      "bufferView": 3,
      "byteOffset": 2439344,
      "componentType": 5126,
      "count": 54717,
      "type": "VEC4"
    },
    {
      "bufferView": 1,
      "byteOffset": 1267176,
      "componentType": 5126,
      "count": 54717,
      "type": "VEC2"
    },
    {
      "bufferView": 0,
      "byteOffset": 1172748,
      "componentType": 5125,
      "count": 103545,
      "type": "SCALAR"
    },
    {
      "bufferView": 2,
      "byteOffset": 5139264,
      "componentType": 5126,
      "count": 106,
      "max": [
        365.4932861328125,
        -411.9667053222656,
        162.125
      ],
      "min": [
        -366.5311584472656,
        -525.9041748046875,
        -5.684341886080802e-14
      ],
      "type": "VEC3"
    },
    {
      "bufferView": 2,
      "byteOffset": 5140536,
      "componentType": 5126,
      "count": 106,
      "type": "VEC3"
    },
    {
      "bufferView": 0,
      "byteOffset": 1586928,
      "componentType": 5125,
      "count": 222,
      "type": "SCALAR"
    },
    {
      "bufferView": 2,
      "byteOffset": 5141808,
      "componentType": 5126,
      "count": 32,
      "max": [
        239.4810791015625,
        -329.4667053222656,
        18.0625
      ],
      "min": [
        -240.51889038085938,
        -525.9041748046875,
        18.0625
      ],
      "type": "VEC3"
    },
    {
      "bufferView": 2,
      "byteOffset": 5142192,
      "componentType": 5126,
      "count": 32,
      "type": "VEC3"
    },
    {
      "bufferView": 3,
      "byteOffset": 3314816,
      "componentType": 5126,
      "count": 32,
      "type": "VEC4"
    },
    {
      "bufferView": 1,
      "byteOffset": 1704912,
      "componentType": 5126,
      "count": 32,
      "type": "VEC2"
    },
    {
      "bufferView": 0,
      "byteOffset": 1587816,
      "componentType": 5125,
      "count": 72,
      "type": "SCALAR"
    },
    {
      "bufferView": 2,
      "byteOffset": 5142576,
      "componentType": 5126,
      "count": 65532,
      "max": [
        657.21826171875,
        421.8881530761719,
        145.76754760742188
      ],
      "min": [
        -656.6595458984375,
        -216.3351287841797,
        18.645536422729492
      ],
      "type": "VEC3"
    },
    {
      "bufferView": 2,
      "byteOffset": 5928960,
      "componentType": 5126,
      "count": 65532,
      "type": "VEC3"
    },
    {
      "bufferView": 3,
      "byteOffset": 3315328,
      "componentType": 5126,
      "count": 65532,
      "type": "VEC4"
    },
    {
      "bufferView": 1,
      "byteOffset": 1705168,
      "componentType": 5126,
      "count": 65532,
      "type": "VEC2"
    },
    {
      "bufferView": 0,
      "byteOffset": 1588104,
      "componentType": 5125,
      "count": 193149,
      "type": "SCALAR"
    },
    {
      "bufferView": 2,
      "byteOffset": 6715344,
      "componentType": 5126,
      "count": 65532,
      "max": [
        702.2989501953125,
        421.8881530761719,
        145.76754760742188
      ],
      "min": [
        -703.3366088867188,
        -245.68092346191406,
        11.645536422729492
      ],
      "type": "VEC3"
    },
    {
      "bufferView": 2,
      "byteOffset": 7501728,
      "componentType": 5126,
      "count": 65532,
      "type": "VEC3"
    },
    {
      "bufferView": 3,
      "byteOffset": 4363840,
      "componentType": 5126,
      "count": 65532,
      "type": "VEC4"
    },
    {
      "bufferView": 1,
      "byteOffset": 2229424,
      "componentType": 5126,
      "count": 65532,
      "type": "VEC2"
    },
    {
      "bufferView": 0,
      "byteOffset": 2360700,
      "componentType": 5125,
      "count": 193125,
      "type": "SCALAR"
    },
    {
      "bufferView": 2,
      "byteOffset": 8288112,
      "componentType": 5126,
      "count": 31735,
      "max": [
        385.0602111816406,
        407.18670654296875,
        145.76754760742188
      ],
      "min": [
        -682.1622924804688,
        -245.68092346191406,
        11.645536422729492
      ],
      "type": "VEC3"
    },
    {
      "bufferView": 2,
      "byteOffset": 8668932,
      "componentType": 5126,
      "count": 31735,
      "type": "VEC3"
    },
    {
      "bufferView": 3,
      "byteOffset": 5412352,
      "componentType": 5126,
      "count": 31735,
      "type": "VEC4"
    },
    {
      "bufferView": 1,
      "byteOffset": 2753680,
      "componentType": 5126,
      "count": 31735,
      "type": "VEC2"
    },
    {
      "bufferView": 0,
      "byteOffset": 3133200,
      "componentType": 5125,
      "count": 93534,
      "type": "SCALAR"
    },
    {
      "bufferView": 2,
      "byteOffset": 9049752,
      "componentType": 5126,
      "count": 65534,
      "max": [
        702.4869995117188,
        418.0350036621094,
        145.76754760742188
      ],
      "min": [
        -661.0910034179688,
        -214.85012817382813,
        7.677621841430664
      ],
      "type": "VEC3"
    },
    {
      "bufferView": 2,
      "byteOffset": 9836160,
      "componentType": 5126,
      "count": 65534,
      "type": "VEC3"
    },
    {
      "bufferView": 3,
      "byteOffset": 5920112,
      "componentType": 5126,
      "count": 65534,
      "type": "VEC4"
    },
    {
      "bufferView": 1,
      "byteOffset": 3007560,
      "componentType": 5126,
      "count": 65534,
      "type": "VEC2"
    },
    {
      "bufferView": 0,
      "byteOffset": 3507336,
      "componentType": 5125,
      "count": 122454,
      "type": "SCALAR"
    },
    {
      "bufferView": 2,
      "byteOffset": 10622568,
      "componentType": 5126,
      "count": 65532,
      "max": [
        589.7471313476563,
        421.8881530761719,
        145.76754760742188
      ],
      "min": [
        -703.524658203125,
        -229.98658752441406,
        7.677621841430664
      ],
      "type": "VEC3"
    },
    {
      "bufferView": 2,
      "byteOffset": 11408952,
      "componentType": 5126,
      "count": 65532,
      "type": "VEC3"
    },
    {
      "bufferView": 3,
      "byteOffset": 6968656,
      "componentType": 5126,
      "count": 65532,
      "type": "VEC4"
    },
    {
      "bufferView": 1,
      "byteOffset": 3531832,
      "componentType": 5126,
      "count": 65532,
      "type": "VEC2"
    },
    {
      "bufferView": 0,
      "byteOffset": 3997152,
      "componentType": 5125,
      "count": 122550,
      "type": "SCALAR"
    },
    {
      "bufferView": 2,
      "byteOffset": 12195336,
      "componentType": 5126,
      "count": 65532,
      "max": [
        679.967041015625,
        421.8881530761719,
        145.76754760742188
      ],
      "min": [
        -638.4630737304688,
        -247.645751953125,
        7.677621841430664
      ],
      "type": "VEC3"
    },
    {
      "bufferView": 2,
      "byteOffset": 12981720,
      "componentType": 5126,
      "count": 65532,
      "type": "VEC3"
    },
    {
      "bufferView": 3,
      "byteOffset": 8017168,
      "componentType": 5126,
      "count": 65532,
      "type": "VEC4"
    },
    {
      "bufferView": 1,
      "byteOffset": 4056088,
      "componentType": 5126,
      "count": 65532,
      "type": "VEC2"
    },
    {
      "bufferView": 0,
      "byteOffset": 4487352,
      "componentType": 5125,
      "count": 122556,
      "type": "SCALAR"
    },
    {
      "bufferView": 2,
      "byteOffset": 13768104,
      "componentType": 5126,
      "count": 470,
      "max": [
        388.1080017089844,
        372.3175964355469,
        138.76754760742188
      ],
      "min": [
        -590.7848510742188,
        -34.34869384765625,
        49.6776237487793
      ],
      "type": "VEC3"
    },
    {
      "bufferView": 2,
      "byteOffset": 13773744,
      "componentType": 5126,
      "count": 470,
      "type": "VEC3"
    },
    {
      "bufferView": 3,
      "byteOffset": 9065680,
      "componentType": 5126,
      "count": 470,
      "type": "VEC4"
    },
    {
      "bufferView": 1,
      "byteOffset": 4580344,
      "componentType": 5126,
      "count": 470,
      "type": "VEC2"
    },
    {
      "bufferView": 0,
      "byteOffset": 4977576,
      "componentType": 5125,
      "count": 864,
      "type": "SCALAR"
    },
    {
      "bufferView": 2,
      "byteOffset": 13779384,
      "componentType": 5126,
      "count": 304,
      "max": [
        742.336669921875,
        501.9450988769531,
        246.6875
      ],
      "min": [
        -743.3744506835938,
        342.69854736328125,
        156.6875
      ],
      "type": "VEC3"
    },
    {
      "bufferView": 2,
      "byteOffset": 13783032,
      "componentType": 5126,
      "count": 304,
      "type": "VEC3"
    },
    {
      "bufferView": 1,
      "byteOffset": 4584104,
      "componentType": 5126,
      "count": 304,
      "type": "VEC2"
    },
    {
      "bufferView": 0,
      "byteOffset": 4981032,
      "componentType": 5125,
      "count": 456,
      "type": "SCALAR"
    },
    {
      "bufferView": 2,
      "byteOffset": 13786680,
      "componentType": 5126,
      "count": 72,
      "max": [
        112.49053192138672,
        501.9450988769531,
        191.00942993164063
      ],
      "min": [
        -113.5283203125,
        501.9450988769531,
        117.0
      ],
      "type": "VEC3"
    },
    {
      "bufferView": 2,
      "byteOffset": 13787544,
      "componentType": 5126,
      "count": 72,
      "type": "VEC3"
    },
    {
      "bufferView": 1,
      "byteOffset": 4586536,
      "componentType": 5126,
      "count": 72,
      "type": "VEC2"
    },
    {
      "bufferView": 0,
      "byteOffset": 4982856,
      "componentType": 5125,
      "count": 144,
      "type": "SCALAR"
    },
    {
      "bufferView": 2,
      "byteOffset": 13788408,
      "componentType": 5126,
      "count": 101,
      "max": [
        399.380615234375,
        501.4450988769531,
        193.88442993164063
      ],
      "min": [
        -400.41839599609375,
        -325.2792053222656,
        -2.842170943040401e-14
      ],
      "type": "VEC3"
    },
    {
      "bufferView": 2,
      "byteOffset": 13789620,
      "componentType": 5126,
      "count": 101,
      "type": "VEC3"
    },
    {
      "bufferView": 0,
      "byteOffset": 4983432,
      "componentType": 5125,
      "count": 183,
      "type": "SCALAR"
    },
    {
      "bufferView": 2,
      "byteOffset": 13790832,
      "componentType": 5126,
      "count": 64,
      "max": [
        399.880615234375,
        -292.144775390625,
        79.0094223022461
      ],
      "min": [
        -400.91839599609375,
        -413.7167053222656,
        5.0
      ],
      "type": "VEC3"
    },
    {
      "bufferView": 2,
      "byteOffset": 13791600,
      "componentType": 5126,
      "count": 64,
      "type": "VEC3"
    },
    {
      "bufferView": 1,
      "byteOffset": 4587112,
      "componentType": 5126,
      "count": 64,
      "type": "VEC2"
    },
    {
      "bufferView": 0,
      "byteOffset": 4984164,
      "componentType": 5125,
      "count": 120,
      "type": "SCALAR"
    },
    {
      "bufferView": 2,
      "byteOffset": 13792368,
      "componentType": 5126,
      "count": 96,
      "max": [
        399.255615234375,
        500.3200988769531,
        216.9375
      ],
      "min": [
        -400.29339599609375,
        -334.4042053222656,
        90.625
      ],
      "type": "VEC3"
    },
    {
      "bufferView": 2,
      "byteOffset": 13793520,
      "componentType": 5126,
      "count": 96,
      "type": "VEC3"
    },
    {
      "bufferView": 0,
      "byteOffset": 4984644,
      "componentType": 5125,
      "count": 144,
      "type": "SCALAR"
    },
    {
      "bufferView": 2,
      "byteOffset": 13794672,
      "componentType": 5126,
      "count": 24,
      "max": [
        397.380615234375,
        498.4450988769531,
        216.9375
      ],
      "min": [
        -398.41839599609375,
        -334.4042053222656,
        90.625
      ],
      "type": "VEC3"
    },
    {
      "bufferView": 2,
      "byteOffset": 13794960,
      "componentType": 5126,
      "count": 24,
      "type": "VEC3"
    },
    {
      "bufferView": 1,
      "byteOffset": 4587624,
      "componentType": 5126,
      "count": 24,
      "type": "VEC2"
    },
    {
      "bufferView": 0,
      "byteOffset": 4985220,
      "componentType": 5125,
      "count": 36,
      "type": "SCALAR"
    }
  ],
  "asset": {
    "generator": "fab-model-conversion",
    "version": "2.0"
  },
  "bufferViews": [
    {
      "buffer": 0,
      "byteLength": 4985364,
      "target": 34963
    },
    {
      "buffer": 0,
      "byteLength": 4587816,
      "byteOffset": 4985364,
      "byteStride": 8,
      "target": 34962
    },
    {
      "buffer": 0,
      "byteLength": 13795248,
      "byteOffset": 9573180,
      "byteStride": 12,
      "target": 34962
    },
    {
      "buffer": 0,
      "byteLength": 9073200,
      "byteOffset": 23368428,
      "byteStride": 16,
      "target": 34962
    }
  ],
  "buffers": [
    {
      "byteLength": 32441628,
      "uri": "scene.bin"
    }
  ],
  "extensionsUsed": [
    "KHR_materials_emissive_strength"
  ],
  "images": [
    {
      "uri": "textures/MetalTrim_baseColor.jpeg"
    },
    {
      "uri": "textures/Tile002_baseColor.jpeg"
    },
    {
      "uri": "textures/Tile002_normal.jpeg"
    },
    {
      "uri": "textures/Carpet_baseColor.jpeg"
    },
    {
      "uri": "textures/Carpet_metallicRoughness.jpeg"
    },
    {
      "uri": "textures/Carpet_normal.jpeg"
    },
    {
      "uri": "textures/Marble_baseColor.jpeg"
    },
    {
      "uri": "textures/Marble_metallicRoughness.jpeg"
    },
    {
      "uri": "textures/Marble_normal.jpeg"
    },
    {
      "uri": "textures/Ceiling_Gypsum_Base_Color_baseColor.jpeg"
    },
    {
      "uri": "textures/Ceiling_Gypsum_Base_Color_metallicRoughness.png"
    },
    {
      "uri": "textures/Ceiling_Gypsum_Base_Color_emissive.jpeg"
    },
    {
      "uri": "textures/Ceiling_Gypsum_Base_Color_normal.jpeg"
    },
    {
      "uri": "textures/Curtain_baseColor.jpeg"
    },
    {
      "uri": "textures/Curtain_metallicRoughness.jpeg"
    },
    {
      "uri": "textures/Curtain_normal.jpeg"
    },
    {
      "uri": "textures/Plastic002_baseColor.jpeg"
    },
    {
      "uri": "textures/Plastic002_metallicRoughness.jpeg"
    },
    {
      "uri": "textures/Plastic002_normal.jpeg"
    },
    {
      "uri": "textures/Floor_baseColor.jpeg"
    },
    {
      "uri": "textures/Floor_metallicRoughness.jpeg"
    },
    {
      "uri": "textures/Floor_normal.jpeg"
    },
    {
      "uri": "textures/Fabric_Padded_Polyester_002_basecolor_baseColor.jpeg"
    },
    {
      "uri": "textures/Fabric_Padded_Polyester_002_basecolor_metallicRoughness.jpeg"
    },
    {
      "uri": "textures/Fabric_Padded_Polyester_002_basecolor_normal.jpeg"
    },
    {
      "uri": "textures/Plastic001_baseColor.jpeg"
    },
    {
      "uri": "textures/GlassWindow_baseColor.jpeg"
    },
    {
      "uri": "textures/GlassDoor_baseColor.jpeg"
    },
    {
      "uri": "textures/GlassDoor02_baseColor.jpeg"
    },
    {
      "uri": "textures/ExitSign_baseColor.jpeg"
    },
    {
      "uri": "textures/ExitSign_emissive.jpeg"
    }
  ],
  "materials": [
    {
      "name": "edge_color000255",
      "pbrMetallicRoughness": {
        "metallicFactor": 0.0,
        "roughnessFactor": 0.6
      }
    },
    {
      "name": "MetalTrim",
      "pbrMetallicRoughness": {
        "baseColorTexture": {
          "index": 0
        },
        "metallicFactor": 0.8091453231095561,
        "roughnessFactor": 0.37638209945020784
      }
    },
    {
      "name": "Tile002",
      "normalTexture": {
        "index": 2
      },
      "pbrMetallicRoughness": {
        "baseColorTexture": {
          "index": 1
        },
        "metallicFactor": 0.0,
        "roughnessFactor": 0.20571491265497188
      }
    },
    {
      "name": "Carpet",
      "normalTexture": {
        "index": 5
      },
      "pbrMetallicRoughness": {
        "baseColorTexture": {
          "index": 3
        },
        "metallicFactor": 0.0,
        "metallicRoughnessTexture": {
          "index": 4
        }
      }
    },
    {
      "alphaMode": "BLEND",
      "name": "material",
      "pbrMetallicRoughness": {
        "baseColorFactor": [
          0.643137,
          0.698039,
          0.733333,
          0.0
        ],
        "metallicFactor": 0.0,
        "roughnessFactor": 0.6
      }
    },
    {
      "name": "Color_07",
      "pbrMetallicRoughness": {
        "baseColorFactor": [
          0.1002182397306339,
          0.02662419005365271,
          0.02662419005365271,
          1.0
        ],
        "metallicFactor": 0.0,
        "roughnessFactor": 0.6
      }
    },
    {
      "name": "Marble",
      "normalTexture": {
        "index": 8
      },
      "pbrMetallicRoughness": {
        "baseColorTexture": {
          "index": 6
        },
        "metallicFactor": 0.0,
        "metallicRoughnessTexture": {
          "index": 7
        },
        "roughnessFactor": 0.6811449330131292
      }
    },
    {
      "emissiveFactor": [
        0.5333349587351123,
        0.5333349587351123,
        0.5333349587351123
      ],
      "emissiveTexture": {
        "index": 11
      },
      "name": "Ceiling_Gypsum_Base_Color",
      "normalTexture": {
        "index": 12
      },
      "pbrMetallicRoughness": {
        "baseColorTexture": {
          "index": 9
        },
        "metallicFactor": 0.14476234594238763,
        "metallicRoughnessTexture": {
          "index": 10
        }
      }
    },
    {
      "name": "Color_14",
      "pbrMetallicRoughness": {
        "baseColorFactor": [
          0.828292110066717,
          0.828292110066717,
          0.828292110066717,
          1.0
        ],
        "metallicFactor": 0.364191586107691,
        "roughnessFactor": 0.5531445429167022
      }
    },
    {
      "name": "Curtain",
      "normalTexture": {
        "index": 15
      },
      "pbrMetallicRoughness": {
        "baseColorTexture": {
          "index": 13
        },
        "metallicFactor": 0.0,
        "metallicRoughnessTexture": {
          "index": 14
        }
      }
    },
    {
      "name": "Plastic002",
      "normalTexture": {
        "index": 18
      },
      "pbrMetallicRoughness": {
        "baseColorTexture": {
          "index": 16
        },
        "metallicFactor": 0.0,
        "metallicRoughnessTexture": {
          "index": 17
        }
      }
    },
    {
      "name": "Color_12",
      "pbrMetallicRoughness": {
        "baseColorFactor": [
          0.014139134381343963,
          0.004024940953011541,
          0.004024940953011541,
          1.0
        ],
        "metallicFactor": 0.0,
        "roughnessFactor": 0.7603832697394887
      }
    },
    {
      "name": "Floor",
      "normalTexture": {
        "index": 21
      },
      "pbrMetallicRoughness": {
        "baseColorTexture": {
          "index": 19
        },
        "metallicFactor": 0.0,
        "metallicRoughnessTexture": {
          "index": 20
        }
      }
    },
    {
      "name": "Fabric_Padded_Polyester_002_basecolor",
      "normalTexture": {
        "index": 24
      },
      "pbrMetallicRoughness": {
        "baseColorTexture": {
          "index": 22
        },
        "metallicFactor": 0.0,
        "metallicRoughnessTexture": {
          "index": 23
        }
      }
    },
    {
      "name": "Plastic001",
      "normalTexture": {
        "index": 18
      },
      "pbrMetallicRoughness": {
        "baseColorTexture": {
          "index": 25
        },
        "metallicFactor": 0.0,
        "metallicRoughnessTexture": {
          "index": 17
        }
      }
    },
    {
      "name": "GlassWindow",
      "pbrMetallicRoughness": {
        "baseColorFactor": [
          0.791,
          0.791,
          0.791,
          1.0
        ],
        "baseColorTexture": {
          "index": 26
        },
        "roughnessFactor": 0.254
      }
    },
    {
      "name": "GlassDoor",
      "pbrMetallicRoughness": {
        "baseColorFactor": [
          0.791,
          0.791,
          0.791,
          1.0
        ],
        "baseColorTexture": {
          "index": 27
        },
        "roughnessFactor": 0.254
      }
    },
    {
      "name": "Black",
      "pbrMetallicRoughness": {
        "baseColorFactor": [
          0.0,
          0.0,
          0.0,
          1.0
        ],
        "metallicFactor": 0.0,
        "roughnessFactor": 0.6
      }
    },
    {
      "name": "GlassDoor02",
      "pbrMetallicRoughness": {
        "baseColorFactor": [
          0.7908595530957808,
          0.7908595530957808,
          0.7908595530957808,
          1.0
        ],
        "baseColorTexture": {
          "index": 28
        },
        "roughnessFactor": 0.2544769660250393
      }
    },
    {
      "name": "color_15",
      "pbrMetallicRoughness": {
        "baseColorFactor": [
          0.17746784955452954,
          0.30689484242644627,
          0.41591835841330743,
          1.0
        ],
        "metallicFactor": 0.30933427606636515,
        "roughnessFactor": 0.3459058160939157
      }
    },
    {
      "emissiveFactor": [
        1.0,
        1.0,
        1.0
      ],
      "emissiveTexture": {
        "index": 30
      },
      "extensions": {
        "KHR_materials_emissive_strength": {
          "emissiveStrength": 2.4838170935378088
        }
      },
      "name": "ExitSign",
      "pbrMetallicRoughness": {
        "baseColorTexture": {
          "index": 29
        },
        "metallicFactor": 0.0,
        "roughnessFactor": 0.3702868427789494
      }
    }
  ],
  "meshes": [
    {
      "name": "Material2",
      "primitives": [
        {
          "attributes": {
            "POSITION": 0
          },
          "indices": 1,
          "material": 0,
          "mode": 1
        }
      ]
    },
    {
      "name": "Material2",
      "primitives": [
        {
          "attributes": {
            "NORMAL": 3,
            "POSITION": 2,
            "TEXCOORD_0": 4
          },
          "indices": 5,
          "material": 1,
          "mode": 4
        }
      ]
    },
    {
      "name": "Material2",
      "primitives": [
        {
          "attributes": {
            "NORMAL": 7,
            "POSITION": 6,
            "TANGENT": 8,
            "TEXCOORD_0": 9
          },
          "indices": 10,
          "material": 2,
          "mode": 4
        }
      ]
    },
    {
      "name": "Material2",
      "primitives": [
        {
          "attributes": {
            "NORMAL": 12,
            "POSITION": 11,
            "TANGENT": 13,
            "TEXCOORD_0": 14
          },
          "indices": 15,
          "material": 3,
          "mode": 4
        }
      ]
    },
    {
      "name": "Material2",
      "primitives": [
        {
          "attributes": {
            "NORMAL": 17,
            "POSITION": 16
          },
          "indices": 18,
          "material": 4,
          "mode": 4
        }
      ]
    },
    {
      "name": "Material2",
      "primitives": [
        {
          "attributes": {
            "NORMAL": 20,
            "POSITION": 19
          },
          "indices": 21,
          "material": 5,
          "mode": 4
        }
      ]
    },
    {
      "name": "Material2",
      "primitives": [
        {
          "attributes": {
            "NORMAL": 23,
            "POSITION": 22,
            "TANGENT": 24,
            "TEXCOORD_0": 25
          },
          "indices": 26,
          "material": 6,
          "mode": 4
        }
      ]
    },
    {
      "name": "Material3",
      "primitives": [
        {
          "attributes": {
            "NORMAL": 28,
            "POSITION": 27,
            "TANGENT": 29,
            "TEXCOORD_0": 30
          },
          "indices": 31,
          "material": 7,
          "mode": 4
        }
      ]
    },
    {
      "name": "Material3",
      "primitives": [
        {
          "attributes": {
            "NORMAL": 33,
            "POSITION": 32
          },
          "indices": 34,
          "material": 8,
          "mode": 4
        }
      ]
    },
    {
      "name": "Material2",
      "primitives": [
        {
          "attributes": {
            "NORMAL": 36,
            "POSITION": 35,
            "TANGENT": 37,
            "TEXCOORD_0": 38
          },
          "indices": 39,
          "material": 9,
          "mode": 4
        }
      ]
    },
    {
      "name": "Material2",
      "primitives": [
        {
          "attributes": {
            "NORMAL": 41,
            "POSITION": 40,
            "TANGENT": 42,
            "TEXCOORD_0": 43
          },
          "indices": 44,
          "material": 10,
          "mode": 4
        }
      ]
    },
    {
      "name": "Material2",
      "primitives": [
        {
          "attributes": {
            "NORMAL": 46,
            "POSITION": 45,
            "TANGENT": 47,
            "TEXCOORD_0": 48
          },
          "indices": 49,
          "material": 10,
          "mode": 4
        }
      ]
    },
    {
      "name": "Material2",
      "primitives": [
        {
          "attributes": {
            "NORMAL": 51,
            "POSITION": 50,
            "TANGENT": 52,
            "TEXCOORD_0": 53
          },
          "indices": 54,
          "material": 10,
          "mode": 4
        }
      ]
    },
    {
      "name": "Material3",
      "primitives": [
        {
          "attributes": {
            "NORMAL": 56,
            "POSITION": 55
          },
          "indices": 57,
          "material": 11,
          "mode": 4
        }
      ]
    },
    {
      "name": "Material2",
      "primitives": [
        {
          "attributes": {
            "NORMAL": 59,
            "POSITION": 58,
            "TANGENT": 60,
            "TEXCOORD_0": 61
          },
          "indices": 62,
          "material": 12,
          "mode": 4
        }
      ]
    },
    {
      "name": "Material2",
      "primitives": [
        {
          "attributes": {
            "NORMAL": 64,
            "POSITION": 63,
            "TANGENT": 65,
            "TEXCOORD_0": 66
          },
          "indices": 67,
          "material": 13,
          "mode": 4
        }
      ]
    },
    {
      "name": "Material2",
      "primitives": [
        {
          "attributes": {
            "NORMAL": 69,
            "POSITION": 68,
            "TANGENT": 70,
            "TEXCOORD_0": 71
          },
          "indices": 72,
          "material": 13,
          "mode": 4
        }
      ]
    },
    {
      "name": "Material2",
      "primitives": [
        {
          "attributes": {
            "NORMAL": 74,
            "POSITION": 73,
            "TANGENT": 75,
            "TEXCOORD_0": 76
          },
          "indices": 77,
          "material": 13,
          "mode": 4
        }
      ]
    },
    {
      "name": "Material2",
      "primitives": [
        {
          "attributes": {
            "NORMAL": 79,
            "POSITION": 78,
            "TANGENT": 80,
            "TEXCOORD_0": 81
          },
          "indices": 82,
          "material": 14,
          "mode": 4
        }
      ]
    },
    {
      "name": "Material2",
      "primitives": [
        {
          "attributes": {
            "NORMAL": 84,
            "POSITION": 83,
            "TANGENT": 85,
            "TEXCOORD_0": 86
          },
          "indices": 87,
          "material": 14,
          "mode": 4
        }
      ]
    },
    {
      "name": "Material2",
      "primitives": [
        {
          "attributes": {
            "NORMAL": 89,
            "POSITION": 88,
            "TANGENT": 90,
            "TEXCOORD_0": 91
          },
          "indices": 92,
          "material": 14,
          "mode": 4
        }
      ]
    },
    {
      "name": "Material2",
      "primitives": [
        {
          "attributes": {
            "NORMAL": 94,
            "POSITION": 93,
            "TANGENT": 95,
            "TEXCOORD_0": 96
          },
          "indices": 97,
          "material": 14,
          "mode": 4
        }
      ]
    },
    {
      "name": "Material2",
      "primitives": [
        {
          "attributes": {
            "NORMAL": 99,
            "POSITION": 98,
            "TEXCOORD_0": 100
          },
          "indices": 101,
          "material": 15,
          "mode": 4
        }
      ]
    },
    {
      "name": "Material2",
      "primitives": [
        {
          "attributes": {
            "NORMAL": 103,
            "POSITION": 102,
            "TEXCOORD_0": 104
          },
          "indices": 105,
          "material": 16,
          "mode": 4
        }
      ]
    },
    {
      "name": "Material3",
      "primitives": [
        {
          "attributes": {
            "NORMAL": 107,
            "POSITION": 106
          },
          "indices": 108,
          "material": 17,
          "mode": 4
        }
      ]
    },
    {
      "name": "Material2",
      "primitives": [
        {
          "attributes": {
            "NORMAL": 110,
            "POSITION": 109,
            "TEXCOORD_0": 111
          },
          "indices": 112,
          "material": 18,
          "mode": 4
        }
      ]
    },
    {
      "name": "Material2",
      "primitives": [
        {
          "attributes": {
            "NORMAL": 114,
            "POSITION": 113
          },
          "indices": 115,
          "material": 19,
          "mode": 4
        }
      ]
    },
    {
      "name": "Material2",
      "primitives": [
        {
          "attributes": {
            "NORMAL": 117,
            "POSITION": 116,
            "TEXCOORD_0": 118
          },
          "indices": 119,
          "material": 20,
          "mode": 4
        }
      ]
    }
  ],
  "nodes": [
    {
      "children": [
        1
      ],
      "matrix": [
        1.0,
        0.0,
        0.0,
        0.0,
        0.0,
        2.220446049250313e-16,
        -1.0,
        0.0,
        0.0,
        1.0,
        2.220446049250313e-16,
        0.0,
        0.0,
        0.0,
        0.0,
        1.0
      ],
      "name": "Sketchfab_model"
    },
    {
      "children": [
        2,
        3,
        4,
        5,
        6,
        7,
        8,
        9,
        10,
        11,
        12,
        13,
        14,
        15,
        16,
        17,
        18,
        19,
        20,
        21,
        22,
        23,
        24,
        25,
        26,
        27,
        28,
        29,
        30
      ],
      "name": "Collada visual scene group"
    },
    {
      "mesh": 0,
      "name": "Material2"
    },
    {
      "mesh": 1,
      "name": "Material2"
    },
    {
      "mesh": 2,
      "name": "Material2"
    },
    {
      "mesh": 3,
      "name": "Material2"
    },
    {
      "mesh": 4,
      "name": "Material2"
    },
    {
      "mesh": 5,
      "name": "Material2"
    },
    {
      "mesh": 6,
      "name": "Material2"
    },
    {
      "mesh": 7,
      "name": "Material3"
    },
    {
      "mesh": 8,
      "name": "Material3"
    },
    {
      "mesh": 9,
      "name": "Material2"
    },
    {
      "mesh": 10,
      "name": "Material2"
    },
    {
      "mesh": 11,
      "name": "Material2"
    },
    {
      "mesh": 12,
      "name": "Material2"
    },
    {
      "mesh": 13,
      "name": "Material3"
    },
    {
      "mesh": 14,
      "name": "Material2"
    },
    {
      "mesh": 15,
      "name": "Material2"
    },
    {
      "mesh": 16,
      "name": "Material2"
    },
    {
      "mesh": 17,
      "name": "Material2"
    },
    {
      "mesh": 18,
      "name": "Material2"
    },
    {
      "mesh": 19,
      "name": "Material2"
    },
    {
      "mesh": 20,
      "name": "Material2"
    },
    {
      "mesh": 21,
      "name": "Material2"
    },
    {
      "mesh": 22,
      "name": "Material2"
    },
    {
      "mesh": 23,
      "name": "Material2"
    },
    {
      "mesh": 24,
      "name": "Material3"
    },
    {
      "mesh": 25,
      "name": "Material2"
    },
    {
      "mesh": 26,
      "name": "Material2"
    },
    {
      "mesh": 27,
      "name": "Material2"
    },
    {
      "children": [
        31
      ],
      "name": "SketchUp"
    },
    {
      "children": [
        32
      ],
      "matrix": [
        -0.8820796,
        0.4711004,
        0.0,
        0.0,
        -0.02421386,
        -0.04533758,
        0.9986782,
        0.0,
        0.4704778,
        0.8809137,
        0.05139852,
        0.0,
        254.917,
        200.7174,
        123.5689,
        1.0
      ],
      "name": "skp_camera_Last_Saved_SketchUp_View"
    },
    {
      "name": "ID1"
    }
  ],
  "samplers": [
    {
      "magFilter": 9729,
      "minFilter": 9987,
      "wrapS": 10497,
      "wrapT": 10497
    }
  ],
  "scene": 0,
  "scenes": [
    {
      "name": "Sketchfab_Scene",
      "nodes": [
        0
      ]
    }
  ],
  "textures": [
    {
      "sampler": 0,
      "source": 0
    },
    {
      "sampler": 0,
      "source": 1
    },
    {
      "sampler": 0,
      "source": 2
    },
    {
      "sampler": 0,
      "source": 3
    },
    {
      "sampler": 0,
      "source": 4
    },
    {
      "sampler": 0,
      "source": 5
    },
    {
      "sampler": 0,
      "source": 6
    },
    {
      "sampler": 0,
      "source": 7
    },
    {
      "sampler": 0,
      "source": 8
    },
    {
      "sampler": 0,
      "source": 9
    },
    {
      "sampler": 0,
      "source": 10
    },
    {
      "sampler": 0,
      "source": 11
    },
    {
      "sampler": 0,
      "source": 12
    },
    {
      "sampler": 0,
      "source": 13
    },
    {
      "sampler": 0,
      "source": 14
    },
    {
      "sampler": 0,
      "source": 15
    },
    {
      "sampler": 0,
      "source": 16
    },
    {
      "sampler": 0,
      "source": 17
    },
    {
      "sampler": 0,
      "source": 18
    },
    {
      "sampler": 0,
      "source": 19
    },
    {
      "sampler": 0,
      "source": 20
    },
    {
      "sampler": 0,
      "source": 21
    },
    {
      "sampler": 0,
      "source": 22
    },
    {
      "sampler": 0,
      "source": 23
    },
    {
      "sampler": 0,
      "source": 24
    },
    {
      "sampler": 0,
      "source": 25
    },
    {
      "sampler": 0,
      "source": 26
    },
    {
      "sampler": 0,
      "source": 27
    },
    {
      "sampler": 0,
      "source": 28
    },
    {
      "sampler": 0,
      "source": 29
    },
    {
      "sampler": 0,
      "source": 30
    }
  ]
}
